<mxfile host="app.diagrams.net" agent="Mozilla/5.0 (Windows NT 10.0; Win64; x64) AppleWebKit/537.36 (KHTML, like Gecko) Chrome/140.0.0.0 Safari/537.36 Edg/140.0.0.0" version="28.2.5">
  <diagram name="PÃ¡gina-1" id="iYPqMkfysZ-vGRSs4PS1">
    <mxGraphModel dx="1668" dy="925" grid="1" gridSize="10" guides="1" tooltips="1" connect="1" arrows="1" fold="1" page="1" pageScale="1" pageWidth="827" pageHeight="1169" math="0" shadow="0">
      <root>
        <mxCell id="0" />
        <mxCell id="1" parent="0" />
        <mxCell id="Falzy4JnLo0zfLjaW_zy-3" value="" style="edgeStyle=orthogonalEdgeStyle;rounded=0;orthogonalLoop=1;jettySize=auto;html=1;" edge="1" parent="1" source="Falzy4JnLo0zfLjaW_zy-1" target="Falzy4JnLo0zfLjaW_zy-2">
          <mxGeometry relative="1" as="geometry" />
        </mxCell>
        <mxCell id="Falzy4JnLo0zfLjaW_zy-1" value="I" style="ellipse;whiteSpace=wrap;html=1;" vertex="1" parent="1">
          <mxGeometry x="50" y="60" width="120" height="80" as="geometry" />
        </mxCell>
        <mxCell id="Falzy4JnLo0zfLjaW_zy-5" value="" style="edgeStyle=orthogonalEdgeStyle;rounded=0;orthogonalLoop=1;jettySize=auto;html=1;" edge="1" parent="1" source="Falzy4JnLo0zfLjaW_zy-2" target="Falzy4JnLo0zfLjaW_zy-4">
          <mxGeometry relative="1" as="geometry" />
        </mxCell>
        <mxCell id="Falzy4JnLo0zfLjaW_zy-2" value="ler num" style="shape=parallelogram;perimeter=parallelogramPerimeter;whiteSpace=wrap;html=1;fixedSize=1;" vertex="1" parent="1">
          <mxGeometry x="250" y="70" width="120" height="60" as="geometry" />
        </mxCell>
        <mxCell id="Falzy4JnLo0zfLjaW_zy-30" value="" style="edgeStyle=orthogonalEdgeStyle;rounded=0;orthogonalLoop=1;jettySize=auto;html=1;" edge="1" parent="1" source="Falzy4JnLo0zfLjaW_zy-4" target="Falzy4JnLo0zfLjaW_zy-29">
          <mxGeometry relative="1" as="geometry" />
        </mxCell>
        <mxCell id="Falzy4JnLo0zfLjaW_zy-32" value="" style="edgeStyle=orthogonalEdgeStyle;rounded=0;orthogonalLoop=1;jettySize=auto;html=1;" edge="1" parent="1" source="Falzy4JnLo0zfLjaW_zy-4" target="Falzy4JnLo0zfLjaW_zy-31">
          <mxGeometry relative="1" as="geometry" />
        </mxCell>
        <mxCell id="Falzy4JnLo0zfLjaW_zy-4" value="num = 0" style="rhombus;whiteSpace=wrap;html=1;" vertex="1" parent="1">
          <mxGeometry x="430" y="60" width="80" height="80" as="geometry" />
        </mxCell>
        <mxCell id="Falzy4JnLo0zfLjaW_zy-29" value="f" style="shape=parallelogram;perimeter=parallelogramPerimeter;whiteSpace=wrap;html=1;fixedSize=1;" vertex="1" parent="1">
          <mxGeometry x="570" y="70" width="120" height="60" as="geometry" />
        </mxCell>
        <mxCell id="Falzy4JnLo0zfLjaW_zy-34" value="" style="edgeStyle=orthogonalEdgeStyle;rounded=0;orthogonalLoop=1;jettySize=auto;html=1;" edge="1" parent="1" source="Falzy4JnLo0zfLjaW_zy-31" target="Falzy4JnLo0zfLjaW_zy-33">
          <mxGeometry relative="1" as="geometry" />
        </mxCell>
        <mxCell id="Falzy4JnLo0zfLjaW_zy-39" value="sim" style="edgeLabel;html=1;align=center;verticalAlign=middle;resizable=0;points=[];" vertex="1" connectable="0" parent="Falzy4JnLo0zfLjaW_zy-34">
          <mxGeometry x="-0.2614" y="3" relative="1" as="geometry">
            <mxPoint as="offset" />
          </mxGeometry>
        </mxCell>
        <mxCell id="Falzy4JnLo0zfLjaW_zy-36" value="" style="edgeStyle=orthogonalEdgeStyle;rounded=0;orthogonalLoop=1;jettySize=auto;html=1;" edge="1" parent="1" source="Falzy4JnLo0zfLjaW_zy-31" target="Falzy4JnLo0zfLjaW_zy-35">
          <mxGeometry relative="1" as="geometry" />
        </mxCell>
        <mxCell id="Falzy4JnLo0zfLjaW_zy-40" value="nao" style="edgeLabel;html=1;align=center;verticalAlign=middle;resizable=0;points=[];" vertex="1" connectable="0" parent="Falzy4JnLo0zfLjaW_zy-36">
          <mxGeometry x="-0.1832" y="4" relative="1" as="geometry">
            <mxPoint as="offset" />
          </mxGeometry>
        </mxCell>
        <mxCell id="Falzy4JnLo0zfLjaW_zy-31" value="num &amp;gt; 0" style="rhombus;whiteSpace=wrap;html=1;" vertex="1" parent="1">
          <mxGeometry x="430" y="270" width="80" height="80" as="geometry" />
        </mxCell>
        <mxCell id="Falzy4JnLo0zfLjaW_zy-38" style="edgeStyle=orthogonalEdgeStyle;rounded=0;orthogonalLoop=1;jettySize=auto;html=1;entryX=0;entryY=1;entryDx=0;entryDy=0;" edge="1" parent="1" source="Falzy4JnLo0zfLjaW_zy-33" target="Falzy4JnLo0zfLjaW_zy-2">
          <mxGeometry relative="1" as="geometry" />
        </mxCell>
        <mxCell id="Falzy4JnLo0zfLjaW_zy-33" value="escrever &quot; positivo&quot;" style="shape=parallelogram;perimeter=parallelogramPerimeter;whiteSpace=wrap;html=1;fixedSize=1;" vertex="1" parent="1">
          <mxGeometry x="410" y="440" width="120" height="60" as="geometry" />
        </mxCell>
        <mxCell id="Falzy4JnLo0zfLjaW_zy-37" style="edgeStyle=orthogonalEdgeStyle;rounded=0;orthogonalLoop=1;jettySize=auto;html=1;" edge="1" parent="1" source="Falzy4JnLo0zfLjaW_zy-35">
          <mxGeometry relative="1" as="geometry">
            <mxPoint x="310" y="140" as="targetPoint" />
          </mxGeometry>
        </mxCell>
        <mxCell id="Falzy4JnLo0zfLjaW_zy-35" value="escrever &quot;negativo&quot;" style="shape=parallelogram;perimeter=parallelogramPerimeter;whiteSpace=wrap;html=1;fixedSize=1;" vertex="1" parent="1">
          <mxGeometry x="250" y="280" width="120" height="60" as="geometry" />
        </mxCell>
      </root>
    </mxGraphModel>
  </diagram>
</mxfile>
